# xmcd CD database file
#
# Track frame offsets:
#	150
#	29015
#	59145
#	87781
#	106113
#	144280
#	183484
#	219923
#	262212
#
# Disc length: 3877 seconds
#
# Revision: 0
# Processed by: cddbd v1.5.1PL2 Copyright (c) Steve Scherf et al.
# Submitted via: CDex 1.51
#
DISCID=820f2309
DTITLE=Alejandro Corona - Smooth Live Jazz
DYEAR=2003
DGENRE=Jazz
TTITLE0=¿Dónde Estás?
TTITLE1=Mar y Luna
TTITLE2=Esquisse, Exquisse
TTITLE3=Tan Solo un Sueño
TTITLE4=Niña
TTITLE5=Alone Together
TTITLE6=My Foolish Heart
TTITLE7=Invitation
TTITLE8=Al Final del Camino
EXTD=YEAR: 2003
EXTT0=
EXTT1=
EXTT2=
EXTT3=
EXTT4=
EXTT5=
EXTT6=
EXTT7=
EXTT8=
PLAYORDER=
